<?xml version="1.0" encoding="utf-8"?>
<!-- Generator: Adobe Illustrator 22.0.0, SVG Export Plug-In . SVG Version: 6.00 Build 0)  -->
<svg version="1.1" id="Layer_1" xmlns="http://www.w3.org/2000/svg" xmlns:xlink="http://www.w3.org/1999/xlink" x="0px" y="0px"
	 viewBox="0 0 32 32" style="enable-background:new 0 0 32 32;" xml:space="preserve">
<style type="text/css">
	.st0{fill:#ECFFFF;}
</style>
<path id="Arrow" class="st0" d="M0,16C0,7.2,7.2,0,16,0c8.8,0,16,7.2,16,16s-7.2,16-16,16S0,24.8,0,16z M29.8,16
	c0-7.6-6.2-13.8-13.8-13.8S2.2,8.4,2.2,16S8.4,29.8,16,29.8S29.8,23.6,29.8,16z M15.9,18.1l5-5c0.4-0.4,1.1-0.4,1.5,0
	c0.4,0.4,0.4,1.1,0,1.5l-4.9,4.9l-1.7,1.7l-6.6-6.6C9.1,14.4,9,14,9.1,13.6s0.4-0.7,0.8-0.8c0.4-0.1,0.8,0,1.1,0.3L15.9,18.1z"/>
</svg>
