<svg xmlns="http://www.w3.org/2000/svg" viewBox="0 0 48 48">
  <defs>
    <style>
      .a {
        fill: #fff;
      }
    </style>
  </defs>
  <title>bar-icon</title>
  <g>
    <path class="a" d="M9.6,43.2h19a3.9,3.9,0,0,0,2.6-.9l9.7-8.1a1.5,1.5,0,0,0,.5-2c0-.1,0-.1-.1-.1a1.3,1.3,0,0,0-.9-.7,2.4,2.4,0,0,0-1.2.3l-9.1,6.6H20a2.4,2.4,0,0,1,0-4.8h5.2a1.2,1.2,0,0,0,1.2-1.2,1.2,1.2,0,0,0-1.2-1.2H14.7a2.4,2.4,0,0,0-1.5.6l-3.6,3Zm19,1.6H8.8A.9.9,0,0,1,8,44V34.4a.7.7,0,0,1,.3-.6l3.9-3.3a3.8,3.8,0,0,1,2.5-.9H25.1A2.9,2.9,0,0,1,28,32.3h0a2.9,2.9,0,0,1-2.8,2.8H20a.8.8,0,1,0,0,1.6h9.3l9-6.4a2.8,2.8,0,0,1,2.3-.5,3,3,0,0,1,2,1.2l.2.2a3.3,3.3,0,0,1-.9,4.2l-9.7,8A5.9,5.9,0,0,1,28.6,44.8Z"/>
    <path class="a" d="M8.8,48H0V46.4H8v-12H0V32.8H8.8a.9.9,0,0,1,.8.8V47.2a.9.9,0,0,1-.8.8"/>
    <path class="a" d="M4,41.6a.8.8,0,0,0,0,1.6.8.8,0,1,0,0-1.6Zm0,3.2A2.4,2.4,0,0,1,4,40a2.4,2.4,0,1,1,0,4.8Z"/>
    <path class="a" d="M1.7,26.4a4.1,4.1,0,0,0,3.9,3.2H42.4a4.1,4.1,0,0,0,3.9-3.2Zm40.7,4.8H5.6A5.6,5.6,0,0,1,0,25.6a.9.9,0,0,1,.8-.8H47.2a.9.9,0,0,1,.8.8A5.6,5.6,0,0,1,42.4,31.2Z"/>
    <path class="a" d="M4.8,24.8H43.2a19.2,19.2,0,0,0-38.4,0ZM44,26.4H4a.9.9,0,0,1-.8-.8v-.8a20.8,20.8,0,1,1,41.6,0v.8A.9.9,0,0,1,44,26.4Z"/>
    <path class="a" d="M10.6,16l-1.3-.9,1.5-2L12,14.2,10.6,16"/>
    <path class="a" d="M13.1,13.1,12,12A17.2,17.2,0,0,1,24,7.2V8.8a15.6,15.6,0,0,0-10.9,4.3"/>
    <polygon class="a" points="21.6 1.6 26.4 1.6 26.4 0 21.6 0 21.6 1.6"/>
    <polygon class="a" points="23.2 4.8 24.8 4.8 24.8 0.8 23.2 0.8 23.2 4.8"/>
  </g>
</svg>
