<?xml version="1.0" encoding="utf-8"?>
<!-- Generator: Adobe Illustrator 22.0.0, SVG Export Plug-In . SVG Version: 6.00 Build 0)  -->
<svg version="1.1" id="Layer_1" xmlns="http://www.w3.org/2000/svg" xmlns:xlink="http://www.w3.org/1999/xlink" x="0px" y="0px"
	 viewBox="0 0 72 72" style="enable-background:new 0 0 72 72;" xml:space="preserve">
<style type="text/css">
	.st0{fill:url(#Oval-5_1_);}
	.st1{opacity:0.8;enable-background:new    ;}
	.st2{fill:url(#SVGID_1_);}
	.st3{opacity:0.5;enable-background:new    ;}
	.st4{fill:url(#SVGID_2_);}
	.st5{opacity:0.2;enable-background:new    ;}
	.st6{fill:url(#SVGID_3_);}
</style>
<linearGradient id="Oval-5_1_" gradientUnits="userSpaceOnUse" x1="-560.14" y1="1097.3199" x2="-560.14" y2="1098.3032" gradientTransform="matrix(25 0 0 -25 14040 27482)">
	<stop  offset="0" style="stop-color:#2F90D0"/>
	<stop  offset="1" style="stop-color:#39DFE2"/>
</linearGradient>
<circle id="Oval-5" class="st0" cx="36.5" cy="36.5" r="12.5"/>
<g id="Oval-5-Copy" class="st1">
	
		<linearGradient id="SVGID_1_" gradientUnits="userSpaceOnUse" x1="-567.7162" y1="1111.4054" x2="-567.7162" y2="1111.9103" gradientTransform="matrix(37 0 0 -37 21041 41167)">
		<stop  offset="0" style="stop-color:#2F90D0"/>
		<stop  offset="1" style="stop-color:#39DFE2"/>
	</linearGradient>
	<path class="st2" d="M35.5,54.5c-10.5,0-19-8.5-19-19s8.5-19,19-19s19,8.5,19,19S46,54.5,35.5,54.5z M35.5,17.5
		c-9.9,0-18,8.1-18,18c0,9.9,8.1,18,18,18c9.9,0,18-8.1,18-18C53.5,25.6,45.4,17.5,35.5,17.5z"/>
</g>
<g id="Oval-5-Copy-2" class="st3">
	
		<linearGradient id="SVGID_2_" gradientUnits="userSpaceOnUse" x1="-572.6852" y1="1120.4861" x2="-572.6852" y2="1120.9868" gradientTransform="matrix(54 0 0 -54 30961 60556)">
		<stop  offset="0" style="stop-color:#2F90D0"/>
		<stop  offset="1" style="stop-color:#39DFE2"/>
	</linearGradient>
	<path class="st4" d="M36,63.5C20.8,63.5,8.5,51.2,8.5,36C8.5,20.8,20.8,8.5,36,8.5c15.2,0,27.5,12.3,27.5,27.5
		C63.5,51.2,51.2,63.5,36,63.5z M36,9.5C21.4,9.5,9.5,21.4,9.5,36S21.4,62.5,36,62.5S62.5,50.6,62.5,36S50.6,9.5,36,9.5z"/>
</g>
<g id="Oval-5-Copy-3" class="st5">
	
		<linearGradient id="SVGID_3_" gradientUnits="userSpaceOnUse" x1="-575.1572" y1="1125.0035" x2="-575.1572" y2="1125.5022" gradientTransform="matrix(70 0 0 -70 40297 78804)">
		<stop  offset="0" style="stop-color:#2F90D0"/>
		<stop  offset="1" style="stop-color:#39DFE2"/>
	</linearGradient>
	<path class="st6" d="M36,71.5C16.4,71.5,0.5,55.6,0.5,36C0.5,16.4,16.4,0.5,36,0.5c19.6,0,35.5,15.9,35.5,35.5
		C71.5,55.6,55.6,71.5,36,71.5z M36,1.5C17,1.5,1.5,17,1.5,36S17,70.5,36,70.5S70.5,55,70.5,36S55,1.5,36,1.5z"/>
</g>
</svg>
