<svg xmlns="http://www.w3.org/2000/svg" viewBox="0 0 48 48">
  <defs>
    <style>
      .a {
        fill: #fff;
      }
    </style>
  </defs>
  <title>cfshop-icon</title>
  <g>
    <path class="a" d="M4.5,43.2a4.1,4.1,0,0,0,3.9,3.2H34a4.1,4.1,0,0,0,3.9-3.2ZM34,48H8.4a5.6,5.6,0,0,1-5.6-5.6.9.9,0,0,1,.8-.8H38.8a.9.9,0,0,1,.8.8A5.6,5.6,0,0,1,34,48Z"/>
    <path class="a" d="M14.3,41.6H28.1c1.2-.9,7.5-6.2,7.5-14.4V24.8H6.8v2.4C6.8,35.4,13.1,40.7,14.3,41.6Zm14.1,1.6H13.5c-.3-.3-8.3-6-8.3-15.9V24a.9.9,0,0,1,.8-.8H36.4a.9.9,0,0,1,.8.8v3.2c0,9.9-8,15.6-8.3,15.9Z"/>
    <path class="a" d="M38,39.2H32.4V37.6H38a5.6,5.6,0,0,0,0-11.2H36.4V24.8H38a7.2,7.2,0,1,1,0,14.4"/>
    <path class="a" d="M38,36H34V34.4h4a2.4,2.4,0,0,0,0-4.8H36.4V28H38a4,4,0,0,1,0,8"/>
    <path class="a" d="M6.8,21.6H5.2A5.6,5.6,0,0,1,10.8,16H18a.8.8,0,1,0,0-1.6h-.4A5.2,5.2,0,0,1,17.6,4H26a2.4,2.4,0,0,0,2.4-2.4V0H30V1.6a4,4,0,0,1-4,4H17.6a3.6,3.6,0,0,0,0,7.2H18a2.4,2.4,0,0,1,0,4.8H10.8a4,4,0,0,0-4,4"/>
    <path class="a" d="M37.2,21.6H35.6V16a4,4,0,0,0-4-4H28.4a2.4,2.4,0,1,1,0-4.8H39.6a4,4,0,0,0,4-4V0h1.6V3.2a5.6,5.6,0,0,1-5.6,5.6H28.4a.9.9,0,0,0-.8.8.9.9,0,0,0,.8.8h3.2A5.6,5.6,0,0,1,37.2,16v5.6"/>
  </g>
</svg>
