<svg xmlns="http://www.w3.org/2000/svg" viewBox="0 0 48 48">
  <defs>
    <style>
      .a {
        fill: #fff;
      }
    </style>
  </defs>
  <title>foodtruck-icon</title>
  <g>
    <path class="a" d="M37.6,40.8a.8.8,0,0,0,.8-.8.8.8,0,1,0-1.6,0A.8.8,0,0,0,37.6,40.8Zm0-3.2A2.4,2.4,0,1,1,35.2,40,2.4,2.4,0,0,1,37.6,37.6Z"/>
    <path class="a" d="M10.4,40.8a.8.8,0,0,0,.8-.8.9.9,0,0,0-.8-.8.9.9,0,0,0-.8.8A.8.8,0,0,0,10.4,40.8Zm0-3.2A2.4,2.4,0,1,1,8,40,2.4,2.4,0,0,1,10.4,37.6Z"/>
    <polygon class="a" points="33.6 32.8 30.4 32.8 30.4 31.2 33.6 31.2 33.6 32.8"/>
    <path class="a" d="M24,28H6.4V23.2H24Zm0-6.4H6.4V20H24Zm1.6,8H4.8V18.4H25.6Z"/>
    <polygon class="a" points="28.8 37.6 27.2 37.6 27.2 29.6 28.8 29.6 28.8 37.6"/>
    <path class="a" d="M4.8,32v4.8H1.6v2.4H4.9a5.6,5.6,0,0,1,6.3-4.7,5.5,5.5,0,0,1,4.7,4.7H32.1a5.6,5.6,0,0,1,6.3-4.7,5.5,5.5,0,0,1,4.7,4.7h3.3V36.8H43.2V32h3.2V30.6L45.1,28H27.2V18.4H40.3l-1.6-3.2H1.6V32ZM3.2,35.2H1.6V33.6H3.2ZM10.4,44a4,4,0,1,0-4-4A4,4,0,0,0,10.4,44Zm27.2,0a4,4,0,1,0-4-4A4,4,0,0,0,37.6,44Zm8.8-8.8H44.8V33.6h1.6ZM41.1,20H28.8v6.4H44.3Zm-8.3-6.4H31.2V12h1.6Zm2.4-3.2a3.2,3.2,0,0,0,3.2-3.2A3.2,3.2,0,0,0,35.2,4H6.4A3.2,3.2,0,0,0,3.2,7.2a3.2,3.2,0,0,0,3.2,3.2Zm-5.6,3.2H12V12H29.6Zm-19.2,0H8.8V12h1.6Zm-3.2,0V12H6.4A4.7,4.7,0,0,1,1.6,7.2,4.8,4.8,0,0,1,6.4,2.4H35.2A4.8,4.8,0,0,1,40,7.2,4.7,4.7,0,0,1,35.2,12h-.8v1.6h5.3L48,30.2V40.8H43.1a5.6,5.6,0,0,1-11,0H15.9a5.5,5.5,0,0,1-6.3,4.7,5.5,5.5,0,0,1-4.7-4.7H0V13.6Z"/>
  </g>
</svg>
