<svg xmlns="http://www.w3.org/2000/svg" viewBox="0 0 107 36">
  <defs>
    <style>
      .a {
        fill: #5bcbcd;
      }
    </style>
  </defs>
  <title>logo-colored</title>
  <path class="a" d="M31.4,10c-.4.9-2.3,3.9-9,4.6a25.7,25.7,0,0,0-2.6-4.1c4.8-4,7.9-4.3,9.3-4.2a3,3,0,0,1,2.2,1.2,2.4,2.4,0,0,1,.1,2.5M21.9,30a4.7,4.7,0,0,1-3.4,1.3,4.9,4.9,0,0,1-3.6-2.2,8.6,8.6,0,0,1-1.4-2.7A12.5,12.5,0,0,1,15,16.3a31.7,31.7,0,0,0,6.6.5c3,6.3,2.3,11.1.3,13.2M4.7,9.2a3.6,3.6,0,0,1-.3-4.4c.8-1.1,3-2.2,6.8-.2a19,19,0,0,1,6,5.4l-.4.5-1,1.2-1.9,2.4c-4.5-.9-7.3-2.5-9.2-4.9m14.4,3.4a23.9,23.9,0,0,1,1.3,2.1H18.8l-2.7-.2a25.5,25.5,0,0,1,2.4-2.7l.6.8m16-6.8a5.3,5.3,0,0,0-4-2.1H29.9C27,3.6,24.1,5,21.7,6.5L20.1,7.6,18.5,8.8C16.3,5.7,12.9,2.1,9.2.6,7.4-.1,3.8-.7,1.5,1.7S.3,8,1.7,9.7C4.3,13,8,15,12.6,16c-3.9,6.3-4.7,12.6-1.3,17.1l.3.4c2.2,2.7,5.8,3,8.9,1.9a8.6,8.6,0,0,0,5.4-8.3,23.3,23.3,0,0,0-2.4-10.4,28.5,28.5,0,0,0,7.2-1.9c2.7-1.1,4.5-2.9,5.1-5.1a4.2,4.2,0,0,0-.7-3.9"/>
  <path class="a" d="M53.3,12.5a2.9,2.9,0,0,1-.3,1,1.6,1.6,0,0,1-.4.7L43.5,25.8h8l-.4,3.4H37.9l.3-1.9a2.5,2.5,0,0,1,.2-.7,2.2,2.2,0,0,1,.5-.8L48,14.1H40.2l.4-3.4H53.5Z"/>
  <path class="a" d="M61.9,25.9a2.6,2.6,0,0,0,1.9-.7,6.1,6.1,0,0,0,1.6-1.6,8.5,8.5,0,0,0,.9-2.4,14.5,14.5,0,0,0,.4-2.9,5.7,5.7,0,0,0-.8-3.3,2.9,2.9,0,0,0-2.3-1,3.1,3.1,0,0,0-1.9.6,6.6,6.6,0,0,0-1.6,1.7,8.5,8.5,0,0,0-.9,2.4,13.6,13.6,0,0,0-.3,2.9,5.2,5.2,0,0,0,.7,3.2,2.6,2.6,0,0,0,2.3,1.1m-.4,3.3a8.2,8.2,0,0,1-2.8-.5,4.8,4.8,0,0,1-2.2-1.5A7.6,7.6,0,0,1,55,24.9a10.7,10.7,0,0,1-.5-3.2,12.7,12.7,0,0,1,.7-4.4,9.8,9.8,0,0,1,2.1-3.4,11.3,11.3,0,0,1,3-2.4,9.5,9.5,0,0,1,3.7-.8,8.2,8.2,0,0,1,2.8.5A4.8,4.8,0,0,1,69,12.7,6.1,6.1,0,0,1,70.5,15a10.7,10.7,0,0,1,.5,3.2,11.8,11.8,0,0,1-.7,4.3A10.2,10.2,0,0,1,68.2,26a9.3,9.3,0,0,1-3,2.3,8.1,8.1,0,0,1-3.7.9"/>
  <path class="a" d="M79.4,20.4a3.2,3.2,0,0,0,1.4-.3,4.7,4.7,0,0,0,1-1,5.4,5.4,0,0,0,.7-1.3,7.7,7.7,0,0,0,.2-1.5,3,3,0,0,0-.6-2,2.5,2.5,0,0,0-1.9-.7,3.2,3.2,0,0,0-1.4.3l-1,.9a3.8,3.8,0,0,0-.6,1.3,3.9,3.9,0,0,0-.2,1.5,3.3,3.3,0,0,0,.6,2.1,2.1,2.1,0,0,0,1.8.7m2.9,8.5a.7.7,0,0,0-.1-.5v-.5l-1.8-.2H78.9l-2.1.2-1.5.5-.8.8c-.2.2-.2.5-.2.9a1.5,1.5,0,0,0,.8,1.5,4.9,4.9,0,0,0,2.7.6,5.7,5.7,0,0,0,1.8-.3,5.9,5.9,0,0,0,1.4-.6,3.1,3.1,0,0,0,.9-1.1,1.9,1.9,0,0,0,.4-1.2m4.4-12.8a7.1,7.1,0,0,1-.1,1.5,11.7,11.7,0,0,1-.5,1.1,6,6,0,0,1-.6,1.1l-.5.9-.5,1.1a4.1,4.1,0,0,0-.1,1.2,2.8,2.8,0,0,0,.3,1.3l.6,1.2a8.3,8.3,0,0,1,.7,1.3,4.7,4.7,0,0,1,.3,1.7,5.4,5.4,0,0,1-.6,2.5,6,6,0,0,1-1.8,2.1,7.4,7.4,0,0,1-2.8,1.4,10.7,10.7,0,0,1-3.7.5,15.5,15.5,0,0,1-3.1-.3,8,8,0,0,1-2.3-1,3.8,3.8,0,0,1-1.4-1.4,2.7,2.7,0,0,1-.5-1.8,4.1,4.1,0,0,1,.7-2.5,5.3,5.3,0,0,1,2-1.6,10.2,10.2,0,0,1,2.8-.9,15.3,15.3,0,0,1,3-.3H80l1.3.2c0-.2-.1-.4-.1-.6v-.6a6.3,6.3,0,0,1,.5-2.2,5.2,5.2,0,0,1-1.5.7l-2.1.2a6.9,6.9,0,0,1-2-.3,5.4,5.4,0,0,1-1.6-1A5.2,5.2,0,0,1,73.3,20a8.6,8.6,0,0,1-.4-2.4,7.4,7.4,0,0,1,.5-2.5,8.6,8.6,0,0,1,1.5-2.2,7.2,7.2,0,0,1,2.5-1.6,8.1,8.1,0,0,1,3.3-.6l2,.2,1.7.7h5.1L89.3,13a.9.9,0,0,1-.3.7.7.7,0,0,1-.6.4l-1.8.5c0,.2.1.5.1.7v.8"/>
  <path class="a" d="M96.9,25.9a3.1,3.1,0,0,0,2-.7,4.6,4.6,0,0,0,1.5-1.6,8.5,8.5,0,0,0,.9-2.4,9.7,9.7,0,0,0,.4-2.9,5.7,5.7,0,0,0-.8-3.3,2.7,2.7,0,0,0-2.2-1,3.4,3.4,0,0,0-2,.6,5,5,0,0,0-1.5,1.7,8.7,8.7,0,0,0-1,2.4,13.6,13.6,0,0,0-.3,2.9,5.2,5.2,0,0,0,.7,3.2,2.7,2.7,0,0,0,2.3,1.1m-.4,3.3a8.7,8.7,0,0,1-2.8-.5,5.4,5.4,0,0,1-2.2-1.5A7.6,7.6,0,0,1,90,24.9a10.7,10.7,0,0,1-.5-3.2,12.7,12.7,0,0,1,.8-4.4,11.3,11.3,0,0,1,2-3.4,10.3,10.3,0,0,1,3.1-2.4,8.6,8.6,0,0,1,3.6-.8,7.8,7.8,0,0,1,2.8.5,5.7,5.7,0,0,1,2.3,1.5,5.9,5.9,0,0,1,1.4,2.3,8.3,8.3,0,0,1,.6,3.2,11.8,11.8,0,0,1-.8,4.3,10.2,10.2,0,0,1-2.1,3.5,7.6,7.6,0,0,1-3,2.3,8.1,8.1,0,0,1-3.7.9"/>
</svg>
