<svg xmlns="http://www.w3.org/2000/svg" width="119" height="121" viewBox="0 0 119 121">
    <path fill="#FFF" fill-rule="nonzero" d="M115.7 20.1c-2.8-3.8-7.4-6.2-13.2-6.9a28.3 28.3 0 0 0-4.1-.3c-9.6.1-18.9 4.5-26.9 9.7-1.8 1.1-3.6 2.4-5.3 3.6L61 30.3C53.7 20 42.3 7.8 30.3 3.1 24.4.8 12.6-1.3 4.8 6.5c-7.8 7.8-3.7 21 .7 26.7 8.6 11 20.8 17.5 36.1 20.7-13.1 20.9-15.5 41.9-4.5 56.8l1.1 1.4c7.2 8.8 19.2 9.9 29.2 6.3 10-3.6 17.8-14.8 18-27.7.2-12.9-2.9-23-8.1-34.4a81 81 0 0 0 23.8-6.3c8.7-3.6 14.9-9.7 16.8-16.7a15.2 15.2 0 0 0-2.2-13.2zM62.8 42.7c1.6 2.3 3.1 4.7 4.4 7H62c-2.7-.1-6.3-.3-8.9-.6 2.7-4 6.2-7.1 7.8-8.9a24.8 24.8 0 0 1 1.9 2.5zM15.4 31.5c-3.2-4.3-4.1-10.1-.9-14.6 3.2-4.5 10-7.3 22.3-.8 7.7 4 13.8 10.4 19.9 18.2L55.3 36c-1.2 1.2-2.3 2.5-3.4 3.8-1.1 1.3-4.2 5.2-6.1 7.9-14.8-3-24.2-8.1-30.4-16.2zm56.7 68.9a14.1 14.1 0 0 1-11.1 4.2 16.4 16.4 0 0 1-12-7 27.1 27.1 0 0 1-4.4-9.2c-3-10-2-21.2 4.6-33.2A136 136 0 0 0 71 56.7c9.9 20.7 7.7 36.9 1.1 43.7zm31.2-66.3c-1.4 3.1-7.5 13.1-29.4 15.2a113.8 113.8 0 0 0-8.6-13.5C81.1 22.6 91.1 21.5 95.7 22a10.4 10.4 0 0 1 7.5 3.8c1.5 2 1.5 5.1.1 8.3z"/>
</svg>
