<svg xmlns="http://www.w3.org/2000/svg" xmlns:xlink="http://www.w3.org/1999/xlink" viewBox="0 0 240 74">
  <defs>
    <style>
      .a {
        fill: url(#a);
      }

      .b {
        fill: #fff;
      }

      .c {
        opacity: 0.4;
      }

      .c, .e {
        isolation: isolate;
      }

      .d {
        fill: url(#b);
      }

      .e {
        opacity: 0.1;
      }

      .f {
        fill: url(#c);
      }
    </style>
    <linearGradient id="a" x1="-497.48" y1="1111.32" x2="-497.48" y2="1112.3" gradientTransform="matrix(209.49, -14.65, -2.58, -36.91, 107206.68, 33786.01)" gradientUnits="userSpaceOnUse">
      <stop offset="0" stop-color="#2f90d0"/>
      <stop offset="1" stop-color="#39dfe2"/>
    </linearGradient>
    <linearGradient id="b" x1="-497.59" y1="1117.45" x2="-497.59" y2="1117.79" gradientTransform="matrix(221.46, -15.49, -3.21, -45.89, 113901.73, 43616.87)" xlink:href="#a"/>
    <linearGradient id="c" x1="-497.72" y1="1122.39" x2="-497.72" y2="1122.73" gradientTransform="matrix(237.42, -16.6, -4.05, -57.86, 122829.78, 56724.01)" xlink:href="#a"/>
  </defs>
  <title>tag</title>
  <path class="a" d="M33.4,24.1,206,12a18.5,18.5,0,0,1,19.7,17.2h0a18.3,18.3,0,0,1-17.1,19.7L36,61A18.5,18.5,0,0,1,16.3,43.8h0A18.3,18.3,0,0,1,33.4,24.1Z"/>
  <path class="b" d="M51.2,46.9l-1-1.9-5.5.4-.6,2-3,.2,4.2-12.7,3-.2,5.8,12Zm-5.7-3.8,3.7-.3L47,38.5ZM58,36.6v.5h2v2.1h-2l.5,7.2-2.5.2-.5-7.2H54.3V37.4h1.3v-.8A2.8,2.8,0,0,1,58,33.4a3.4,3.4,0,0,1,2.2.7l-.5,1.6-.9-.2A.9.9,0,0,0,58,36.6Zm6.8-.5v.5h2l.2,2.1H64.9l.5,7.2-2.5.2-.5-7.2H61.2L61,36.9h1.3V36a2.7,2.7,0,0,1,2.6-3,3.3,3.3,0,0,1,2.2.6l-.5,1.7a1.4,1.4,0,0,0-.9-.3A.9.9,0,0,0,64.8,36.1Zm8.9,9.4a4.9,4.9,0,1,1,4.7-5.2A4.9,4.9,0,0,1,73.7,45.5Zm-.1-2.2a2.7,2.7,0,0,0-.4-5.3,2.7,2.7,0,0,0-2.4,2.9A2.7,2.7,0,0,0,73.6,43.3Zm9-6.2a3.5,3.5,0,0,1,3.1-2.2v2.3c-1.9.1-3.1,1.3-3,3l.3,4.5H80.5l-.6-9.2,2.6-.2Zm11.3-5.8,2.6-.2.9,12.6-2.6.2V42.5a4,4,0,0,1-3,1.8c-2.5.2-4.5-1.7-4.7-4.6s1.5-5,4-5.1a3.8,3.8,0,0,1,3.2,1.3ZM92.3,42a2.4,2.4,0,0,0,2.1-2.8,2.4,2.4,0,0,0-2.5-2.5,2.7,2.7,0,0,0,.4,5.3Zm10.9-8.3a3.8,3.8,0,0,1,4.3,3.7l.4,5.5-2.5.2v-.9a3.6,3.6,0,0,1-2.6,1.3c-2,.2-3.6-.9-3.7-2.7s1.4-3.2,3.6-3.4a9.9,9.9,0,0,1,2.4.3h0a1.9,1.9,0,0,0-2.3-1.7,4.9,4.9,0,0,0-2.3.8l-1-1.7A9.1,9.1,0,0,1,103.2,33.7Zm-.1,8c1-.1,2-.6,2.1-1.5v-.9a6.5,6.5,0,0,0-2-.2c-1,.1-1.7.7-1.6,1.4S102.2,41.7,103.1,41.7Zm12.1-8.8c2.5-.2,4.4,1.7,4.6,4.5s-1.5,5-3.9,5.2a4,4,0,0,1-3.3-1.3v1.3l-2.6.2-.9-12.6,2.7-.2.3,4.6A3.7,3.7,0,0,1,115.2,32.9Zm-.2,7.5a2.3,2.3,0,0,0,2.2-2.8,2.5,2.5,0,0,0-2.6-2.5,2.4,2.4,0,0,0-2.2,2.5v.7A2.4,2.4,0,0,0,115,40.4Zm7,1.5-.9-12.5,2.6-.2.9,12.6Zm9.1-2.7a4.1,4.1,0,0,0,2.1-1l1.8,1.6a6.1,6.1,0,0,1-3.7,1.7A4.8,4.8,0,0,1,126,37a4.7,4.7,0,0,1,4.5-5.2c2.9-.2,4.7,1.9,5,5.4l-6.7.5A2.3,2.3,0,0,0,131.1,39.2Zm-.4-5.1a2.2,2.2,0,0,0-2,1.7l4.1-.3A1.9,1.9,0,0,0,130.7,34.1Zm11.9,6.4-.9-12.3,5.6-.4c2.7-.2,4.8,1.4,4.9,3.8s-1.7,4.3-4.3,4.5l-2.9.2.2,4Zm2.2-6.6,2.6-.2c1.3-.1,2.2-.8,2.1-1.9a1.9,1.9,0,0,0-2.3-1.6l-2.7.2Zm11.7-2a3.4,3.4,0,0,1,3-2.1l.2,2.2c-2,.1-3.1,1.3-3,3.1l.3,4.4-2.6.2-.7-9.3,2.7-.2Zm5.8-3.4a1.4,1.4,0,1,1-.2-2.8,1.4,1.4,0,0,1,1.5,1.3A1.4,1.4,0,0,1,162.3,28.5Zm-.6,10.7-.7-9.3,2.6-.2.7,9.3Zm9.4-.5a5,5,0,0,1-5.4-4.5,5.1,5.1,0,0,1,4.8-5.2,4.7,4.7,0,0,1,3.7,1.3l-1.6,1.6a3.5,3.5,0,0,0-2-.7,2.7,2.7,0,1,0,2.3,4.3l1.8,1.3A4.6,4.6,0,0,1,171.1,38.7ZM177,27.5a1.6,1.6,0,0,1-1.6-1.3,1.5,1.5,0,0,1,1.4-1.5,1.4,1.4,0,0,1,1.5,1.3A1.5,1.5,0,0,1,177,27.5Zm-.6,10.6-.7-9.2,2.7-.2L179,38ZM186,27.9a3.4,3.4,0,0,1,3.7,3.4l.4,5.9-2.5.2-.4-5.4a1.8,1.8,0,0,0-1.9-1.8,1.8,1.8,0,0,0-1.8,1.9h0l.4,5.5-2.7.2-.6-9.3,2.6-.2v1.2A3.3,3.3,0,0,1,186,27.9Zm12.4-.6,2.6-.2.6,8.3c.2,2.4-1.8,4.2-4.7,4.4a7.7,7.7,0,0,1-4.2-.9l.8-2a4.4,4.4,0,0,0,2.8.7c1.7-.1,2.7-.9,2.7-2.1V34.4a4,4,0,0,1-3,1.7,4.2,4.2,0,0,1-4.4-4.1,4.1,4.1,0,0,1,3.8-4.7,3.9,3.9,0,0,1,3.2,1.2Zm-1.8,6.5a2.1,2.1,0,0,0,2.1-2.3,2.3,2.3,0,1,0-4.5.3A2.1,2.1,0,0,0,196.6,33.8Z"/>
  <g class="c">
    <path class="d" d="M32.2,67.1A24,24,0,0,1,8.3,44.8a23.5,23.5,0,0,1,5.8-17.4,23.7,23.7,0,0,1,16.4-8.2L206.1,6.9a24,24,0,0,1,3.4,47.9L33.9,67.1ZM30.7,21.2A21.9,21.9,0,0,0,10.3,44.7a21.4,21.4,0,0,0,7.5,15,21.6,21.6,0,0,0,15.9,5.4L209.3,52.8a22,22,0,0,0,20.4-23.5,21.4,21.4,0,0,0-7.5-15,21.6,21.6,0,0,0-15.9-5.4Z"/>
  </g>
  <g class="e">
    <path class="f" d="M30.2,73.3a30,30,0,0,1-2.1-59.9v0L207.7.8a29.9,29.9,0,0,1,32,27.8,29.4,29.4,0,0,1-7.3,21.8,29.1,29.1,0,0,1-20.5,10.2L32.3,73.2ZM209.8,2.7h-2L28.3,15.3a28.1,28.1,0,0,0-26,29.9,27.8,27.8,0,0,0,9.5,19.2,28.1,28.1,0,0,0,20.4,6.8L211.7,58.7a28.1,28.1,0,0,0,26-29.9A28,28,0,0,0,209.8,2.7Z"/>
  </g>
</svg>
